<?xml version="1.0" encoding="UTF-8" standalone="no"?>
<svg
   xmlns:dc="http://purl.org/dc/elements/1.1/"
   xmlns:cc="http://creativecommons.org/ns#"
   xmlns:rdf="http://www.w3.org/1999/02/22-rdf-syntax-ns#"
   xmlns:svg="http://www.w3.org/2000/svg"
   xmlns="http://www.w3.org/2000/svg"
   id="svg8"
   version="1.1"
   viewBox="89 0 210 297"
   height="297mm"
   width="210mm">
  <defs
     id="defs2" />
  <metadata
     id="metadata5">
    <rdf:RDF>
      <cc:Work
         rdf:about="">
        <dc:format>image/svg+xml</dc:format>
        <dc:type
           rdf:resource="http://purl.org/dc/dcmitype/StillImage" />
        <dc:title></dc:title>
      </cc:Work>
    </rdf:RDF>
  </metadata>
  <g
     id="layer1">
    <path
       style="fill:#61c9a8;fill-opacity:1;stroke-width:1"
       d="m 110.34548,206.35119 c -0.38728,-0.23167 -4.73847,-1.17624 -9.79169,-2.12561 -1.383604,-0.25994 -3.34463,-0.78465 -4.357833,-1.16602 -3.343333,-1.25843 -8.620522,-2.47845 -12.57339,-2.90682 -6.634615,-0.71899 -7.79127,-0.9675 -8.218477,-1.76574 -0.443145,-0.82803 1.23336,-6.15797 3.985091,-12.66937 0.830212,-1.96453 1.898485,-4.70297 2.373942,-6.08542 0.475453,-1.38245 1.556178,-4.06135 2.401609,-5.95312 3.546339,-7.93543 5.014084,-11.65687 5.014084,-12.71312 0,-0.32545 0.17331,-0.65823 0.38513,-0.73951 0.823534,-0.31603 5.743265,0.72131 10.065911,2.12241 2.481543,0.80435 3.436763,0.97235 6.482293,1.14008 2.51757,0.13865 4.39189,0.41051 6.35,0.92102 1.76846,0.46107 3.64355,0.75251 5.15937,0.80192 1.30969,0.0427 2.67891,0.21194 3.04271,0.37611 0.3638,0.16418 1.36305,0.38496 2.22054,0.49063 2.13813,0.26348 2.38212,0.69927 1.38483,2.47341 -0.4179,0.74342 -1.34287,3.15363 -2.05549,5.35602 -0.71263,2.2024 -2.18151,6.20702 -3.26418,8.89915 -1.08268,2.69214 -2.28133,6.08542 -2.66368,7.54063 -0.38234,1.4552 -0.96325,3.41974 -1.29091,4.36562 -0.32766,0.94589 -0.85903,2.85089 -1.18083,4.23333 -1.78076,7.65024 -2.06037,8.24704 -3.46903,7.4044 z m 0.25792,-2.62943 c 0.15209,-0.28419 0.50832,-1.66894 0.79161,-3.07724 0.2833,-1.40829 1.04665,-4.30117 1.69635,-6.42861 0.64969,-2.12744 1.49989,-4.93964 1.88934,-6.24932 0.38944,-1.30969 1.51767,-4.34579 2.50717,-6.74688 0.98949,-2.40109 2.30289,-5.97297 2.91864,-7.9375 0.61576,-1.96453 1.34565,-4.02006 1.62199,-4.56783 l 0.50242,-0.99596 -0.68598,-0.26081 c -1.28949,-0.49027 -1.5309,-0.3617 -1.3551,0.72165 0.17914,1.10391 -0.0723,1.69675 -4.24033,9.99774 -0.43841,0.87313 -1.17793,2.83766 -1.64338,4.36563 -0.46546,1.52797 -1.13468,3.55203 -1.48715,4.49791 -0.35248,0.94589 -1.17969,3.40036 -1.83824,5.45439 -0.65855,2.05403 -1.49892,4.41646 -1.86749,5.24985 -0.48493,1.09652 -0.62455,1.75815 -0.50523,2.39419 0.29236,1.5584 -0.63493,1.72477 -5.89117,1.05694 -3.02857,-0.38479 -4.047798,-0.50501 -6.826576,-0.80522 -2.934155,-0.317 1.215583,1.2393 5.392866,2.02252 1.54507,0.28969 4.05937,0.80347 5.58734,1.14173 1.52797,0.33826 2.86324,0.63043 2.96726,0.64927 0.10402,0.0188 0.31356,-0.19827 0.46566,-0.48245 z m -26.71625,-5.87367 c -0.363802,-0.14928 -1.907072,-0.4949 -3.429489,-0.76805 -2.14208,-0.38432 -2.814273,-0.42386 -2.972512,-0.17483 -0.610092,0.96012 -0.292206,1.02684 5.608251,1.17721 1.2279,0.0313 1.351886,-0.005 0.79375,-0.23433 z m 15.610415,-7.78045 c 0,-0.22687 -0.119062,-0.33891 -0.264583,-0.24897 -0.145521,0.0899 -0.264583,0.27556 -0.264583,0.41249 0,0.13693 0.119062,0.24897 0.264583,0.24897 0.145521,0 0.264583,-0.18562 0.264583,-0.41249 z M 115.58605,174.995 c -0.0815,-0.0815 -0.22941,0.0654 -0.32877,0.32632 -0.14358,0.37708 -0.11319,0.40747 0.14812,0.14811 0.18082,-0.17947 0.26211,-0.39297 0.18065,-0.47443 z m -26.518272,-4.42477 c 0.253362,-0.76398 0.660159,-1.74625 0.903996,-2.18281 2.840271,-5.08522 3.194572,-5.8865 2.66418,-6.0252 -0.64262,-0.16805 -0.956979,0.29232 -2.126893,3.11478 -0.805077,1.94228 -2.110581,5.81186 -2.120024,6.28386 -0.01085,0.54178 0.264247,0.0592 0.678741,-1.19063 z"
       id="path912" />
    <path
       style="fill:#ff6347;fill-opacity:1;stroke-width:1"
       d="m 81.371187,163.55515 c -0.61179,-0.2199 -0.95474,-0.52732 -1.01059,-0.90591 -0.0465,-0.31519 -0.17455,-0.57307 -0.28455,-0.57307 -0.11001,0 -0.77282,-0.92273 -1.47292,-2.05052 -0.70011,-1.12778 -1.79697,-2.84966 -2.43746,-3.82638 -0.6405,-0.97673 -1.47379,-2.45137 -1.85177,-3.27697 -0.61276,-1.33845 -0.66938,-1.71222 -0.52252,-3.44954 0.45827,-5.42131 6.53161,-11.87622 16.04647,-17.05461 1.23693,-0.67319 2.92566,-1.60253 3.75274,-2.06521 1.37785,-0.77078 5.669548,-2.46174 9.608723,-3.78591 0.87312,-0.29351 2.49079,-0.59397 3.59481,-0.6677 1.66468,-0.11118 2.22366,-0.0384 3.27478,0.4266 0.69711,0.30837 1.49312,0.56066 1.76891,0.56066 0.27579,0 1.04118,0.49751 1.70085,1.10557 1.21225,1.11741 2.40001,3.31582 5.47807,10.13922 1.61186,3.57318 1.5971,3.50529 0.97949,4.5046 -1.06473,1.72276 -8.39363,8.18221 -12.69587,11.1897 -0.65484,0.45777 -1.96453,1.43243 -2.91042,2.16591 -3.0065,2.33139 -11.581083,6.37015 -14.385143,6.77562 -0.60114,0.0869 -1.84966,0.38372 -2.7745,0.65955 -1.90092,0.56693 -4.48166,0.62349 -5.8591,0.12839 z m 9.18876,-3.22633 c -0.0879,-0.0879 -0.31613,-0.0973 -0.50712,-0.0209 -0.21107,0.0845 -0.14838,0.14715 0.15985,0.15985 0.27891,0.0115 0.43518,-0.0511 0.34727,-0.13897 z m -4.88569,-2.69368 c 1.71185,-0.45475 4.1899,-1.25791 5.50677,-1.78478 2.7909,-1.11662 9.063873,-4.84888 11.787613,-7.01334 1.04112,-0.82735 2.65003,-1.95869 3.57535,-2.51409 0.92532,-0.5554 2.48831,-1.76251 3.4733,-2.68246 0.98499,-0.91994 1.90572,-1.67263 2.04606,-1.67263 0.30335,0 1.65897,-2.50433 1.85006,-3.41775 0.35423,-1.69323 1.5068,-0.0849 2.11512,2.95146 l 0.30414,1.51807 0.90779,-0.72432 c 0.49928,-0.39838 0.90779,-0.86173 0.9078,-1.02965 0,-0.16793 -0.46073,-1.29902 -1.02386,-2.51354 -0.56313,-1.21453 -1.41422,-3.10119 -1.89132,-4.1926 -1.26799,-2.90065 -1.41927,-3.01579 -1.61437,-1.22868 -0.19071,1.74693 -1.78972,5.78416 -3.07262,7.75785 -0.53345,0.82069 -1.91928,2.20521 -3.45712,3.45384 -3.3446,2.71563 -3.59768,2.88289 -7.293191,4.82033 -5.201692,2.72706 -6.595242,3.38743 -7.841262,3.71578 -0.65484,0.17256 -1.78594,0.649 -2.51354,1.05875 -1.36767,0.7702 -1.84033,0.92435 -5.77363,1.88293 -1.59839,0.38955 -2.74504,0.52016 -3.63802,0.4144 -0.71719,-0.0849 -1.30398,-0.0686 -1.30398,0.0363 0,0.10489 0.30923,0.64577 0.68717,1.20196 0.65768,0.96786 0.74001,1.0065 1.91823,0.90016 0.67708,-0.0611 2.63166,-0.48319 4.34351,-0.93795 z m 1.91463,-5.5814 c 2.40906,-0.74872 6.60039,-2.79301 8.56441,-4.17721 3.447018,-2.4294 6.730203,-5.25561 8.234863,-7.0887 0.84094,-1.02448 1.85199,-2.16035 2.24677,-2.52415 1.02074,-0.94063 2.035,-3.0534 1.93737,-4.03569 -0.0956,-0.96147 -0.4341,-1.1435 -1.15036,-0.61852 -0.40213,0.29475 -0.51847,0.69535 -0.51847,1.78542 0,1.31409 -0.054,1.43145 -0.83107,1.80636 -0.45709,0.22053 -1.41837,0.99628 -2.13617,1.72388 -3.75103,3.80227 -6.483143,6.24715 -8.145253,7.28895 -1.01865,0.63849 -2.44432,1.66978 -3.16817,2.29178 -1.54746,1.32971 -2.57465,1.85591 -4.22469,2.16417 -1.63499,0.30545 -3.92977,1.88647 -2.72745,1.87912 0.1819,-0.001 1.0451,-0.22404 1.91822,-0.49541 z m -5.53485,-7.21685 c 0.22797,-0.44086 0.35977,-0.85629 0.29288,-0.92318 -0.12704,-0.12703 -1.24032,1.5526 -1.24032,1.87129 0,0.37405 0.54656,-0.17289 0.94744,-0.94811 z m 9.36599,-9.74821 c 0.24886,0 0.66572,-0.23563 0.92634,-0.52363 0.8553,-0.94508 4.77406,-2.07403 9.265443,-2.66925 0.87312,-0.11572 2.63237,-0.35072 3.90943,-0.52224 1.94394,-0.2611 2.51465,-0.24842 3.50573,0.0779 1.12752,0.37119 1.1838,0.36546 1.1838,-0.12057 0,-1.40273 -1.80943,-2.57591 -3.98901,-2.58636 -1.85254,-0.009 -6.688215,1.45769 -9.637033,2.92276 -2.91514,1.44834 -7.00762,3.95902 -7.00997,4.30052 -7.9e-4,0.11971 0.31222,-0.0291 0.69565,-0.33072 0.38343,-0.30161 0.90075,-0.54837 1.14962,-0.54837 z"
       id="path896" />
    <path
       style="fill:#000000;stroke-width:1"
       id="path894"
       d="" />
    <path
       style="fill:#000000;stroke-width:1"
       id="path892"
       d="" />
    <path
       style="fill:#ffd42a;fill-opacity:1;stroke-width:1"
       d="m 101.32719,255.23795 c -1.31164,-0.41763 -9.525004,-5.73617 -9.525004,-6.16789 0,-0.12321 0.226322,-0.66765 0.502938,-1.20986 0.276617,-0.54222 0.71296,-1.96319 0.969653,-3.15773 0.394123,-1.83407 0.417452,-2.392 0.149995,-3.58712 -0.498594,-2.22795 -0.849069,-2.56698 -2.653662,-2.56698 -1.965992,0 -4.069538,1.01734 -6.326331,3.05962 l -1.636027,1.48052 -2.409692,-1.67476 c -5.762803,-4.0052 -7.890701,-6.10878 -7.544419,-7.45819 0.07996,-0.31161 0.655169,-0.89015 1.278236,-1.28563 0.623067,-0.39548 1.497026,-1.06484 1.942129,-1.48746 0.445103,-0.42262 1.082461,-0.8551 1.416349,-0.96107 0.333886,-0.10597 1.03202,-0.48106 1.551408,-0.83352 0.519385,-0.35247 2.173983,-1.37333 3.67688,-2.26858 1.5029,-0.89525 2.732543,-1.74301 2.732543,-1.8839 0,-0.35481 -2.723743,-0.0423 -4.427665,0.50799 -1.618347,0.52267 -2.037019,0.32552 -2.301396,-1.08373 -0.09341,-0.49791 -0.391522,-1.4164 -0.662479,-2.0411 -0.27096,-0.6247 -0.633722,-1.99461 -0.806143,-3.04425 l -0.313489,-1.90843 0.88215,-0.8986 c 0.664276,-0.67666 1.568283,-1.12988 3.660272,-1.83505 3.621341,-1.22069 7.249218,-1.63159 13.000662,-1.47248 l 4.4017,0.12177 0.110337,-2.2671 c 0.08364,-1.71857 0.277852,-2.63176 0.802698,-3.77429 2.212937,-4.8173 7.856047,-6.77345 12.772977,-4.42766 1.76858,0.84376 4.71833,2.89104 6.12499,4.25106 2.57306,2.48776 3.56375,6.826 2.31797,10.15047 -0.91723,2.44771 -3.68906,4.9502 -6.28938,5.67825 -0.67505,0.189 -1.22737,0.43223 -1.22737,0.54051 0,0.10828 0.29093,0.71789 0.64651,1.35468 1.137,2.03618 3.0326,7.29603 3.7085,10.29022 0.70693,3.13167 0.94375,8.01069 0.45073,9.28619 -0.31215,0.80758 -0.37226,0.83521 -3.36037,1.54489 -3.00578,0.71387 -5.43031,0.72556 -6.06049,0.0292 -0.25509,-0.28187 -0.39042,-0.63123 -0.30073,-0.77635 0.0897,-0.14512 -0.10701,-1.3426 -0.4371,-2.66108 -0.58423,-2.33352 -0.99705,-3.06063 -0.99705,-1.75613 0,0.99899 -1.81512,9.6942 -2.24054,10.73314 -0.20855,0.50932 -0.5372,1.52135 -0.73032,2.24895 -0.33157,1.24919 -0.40233,1.32568 -1.26983,1.37249 -0.50527,0.0273 -1.21634,-0.0452 -1.58014,-0.16103 z m 1.70145,-2.15827 c 0.21946,-0.73903 0.47051,-1.78083 0.55787,-2.31511 0.0874,-0.53427 0.70094,-3.19797 1.3635,-5.91932 1.18189,-4.8544 1.20095,-5.00193 1.00832,-7.80521 l -0.19635,-2.8573 -0.60606,1.36899 c -0.86764,1.95983 -2.47216,7.11728 -2.75511,8.85583 -0.35911,2.20645 -0.79862,3.70197 -1.35522,4.61145 -0.41558,0.67904 -1.137214,3.09946 -1.165697,3.90982 -0.0077,0.21946 2.174177,1.49454 2.557427,1.49454 0.10576,0 0.37185,-0.60466 0.59132,-1.34369 z m 13.47986,-8.80714 c 0.52374,-0.13128 0.14229,-5.72097 -0.61518,-9.01454 -1.49375,-6.49511 -3.19639,-11.5263 -3.90069,-11.5263 -0.21494,0 -0.33208,0.14883 -0.26033,0.33073 0.0718,0.1819 0.44151,1.69995 0.82167,3.37344 0.38017,1.67349 0.87416,3.83578 1.09777,4.80508 0.39673,1.71975 0.72949,4.2246 1.07375,8.08274 0.18894,2.11749 -0.24135,3.25176 -1.23357,3.25176 -0.32878,0 -0.52307,0.17826 -0.52307,0.47991 0,0.42319 0.1954,0.46782 1.65364,0.37766 0.90951,-0.0562 1.75821,-0.12844 1.88601,-0.16048 z m -6.79849,-3.12795 c -0.0845,-0.21106 -0.14716,-0.14837 -0.15985,0.15986 -0.0115,0.27891 0.051,0.43518 0.13896,0.34726 0.0879,-0.0879 0.0973,-0.31612 0.0209,-0.50712 z m -25.840297,-0.35332 c 0.279606,-0.33691 0.263239,-0.37562 -0.0999,-0.23627 -0.238863,0.0917 -0.434298,0.27297 -0.434298,0.40293 0,0.34024 0.15316,0.29246 0.534194,-0.16666 z m -0.666486,-5.68248 c 0.08994,-0.14552 0.03743,-0.26459 -0.116675,-0.26459 -0.15411,0 -0.280199,0.11907 -0.280199,0.26459 0,0.14552 0.0525,0.26458 0.116675,0.26458 0.06417,0 0.190262,-0.11906 0.280199,-0.26458 z m 26.061463,-5.55625 c 0,-0.14552 -0.12609,-0.26459 -0.2802,-0.26459 -0.15411,0 -0.20662,0.11907 -0.11668,0.26459 0.0899,0.14552 0.21603,0.26458 0.2802,0.26458 0.0642,0 0.11668,-0.11906 0.11668,-0.26458 z m 7.3004,-14.46445 c 0.50307,-1.73051 0.39109,-3.96358 -0.29914,-5.96541 -0.3258,-0.94493 -0.73255,-1.46481 -1.6767,-2.14312 -1.20387,-0.8649 -2.95471,-1.42723 -3.4639,-1.11254 -0.3024,0.1869 0.80686,1.86651 1.83413,2.77718 1.39111,1.23321 2.28734,5.53124 1.76678,8.47292 l -0.21069,1.19062 0.80498,-0.85382 c 0.46437,-0.49253 0.99097,-1.49361 1.24454,-2.36583 z m -30.716029,2.00904 c 1.455208,-0.15933 3.657864,-0.50742 4.894791,-0.77353 1.236927,-0.26611 3.141927,-0.57384 4.233334,-0.68385 1.091406,-0.11001 2.162968,-0.21896 2.38125,-0.24211 0.218281,-0.0231 0.790855,-0.0625 1.272386,-0.0874 0.582187,-0.0301 0.812824,-0.14668 0.688409,-0.34799 -0.275098,-0.44512 -7.664603,-0.10606 -11.88267,0.54522 -3.529912,0.54503 -5.953125,1.21034 -5.953125,1.63447 0,0.31772 1.163129,0.30577 4.365625,-0.0449 z m 16.044279,-8.33637 c 0.55206,-1.24804 0.51739,-1.93992 -0.0446,-0.88984 -0.38916,0.72714 -0.79505,2.10245 -0.6205,2.10245 0.0708,0 0.37008,-0.54568 0.66509,-1.21261 z m 5.91614,-4.34364 c 0.0899,-0.14552 -0.0746,-0.26458 -0.36565,-0.26458 -0.29104,0 -0.60275,0.11906 -0.69269,0.26458 -0.0899,0.14552 0.0746,0.26458 0.36565,0.26458 0.29104,0 0.60275,-0.11906 0.69269,-0.26458 z"
       id="path928" />
    <path
       style="fill:#9147ff;fill-opacity:1;stroke-width:1"
       d="m 96.037179,130.89371 c -5.09816,-0.82804 -7.38719,-1.85372 -9.80202,-4.39216 -2.24648,-2.36147 -2.80306,-3.37273 -2.96472,-5.38666 -0.29331,-3.65398 1.22901,-10.81348 3.46301,-16.2866 2.05228,-5.027934 6.74705,-14.072514 8.64426,-16.653374 1.69424,-2.30473 2.70324,-4.05747 4.37226,-7.595 l 1.398791,-2.96479 -1.390141,-0.78455 c -3.12847,-1.7656 -4.61875,-5.07608 -4.07499,-9.05211 0.33559,-2.4539 1.61723,-4.81682 3.80572,-7.01652 2.966521,-2.98173 6.188821,-4.25526 10.152051,-4.01234 2.52474,0.15475 4.18287,0.90793 6.018,2.7336 1.09996,1.09429 1.47352,1.70713 1.91823,3.14694 0.62717,2.03054 0.67606,2.966 0.25922,4.96039 -0.73377,3.51076 -3.33066,6.92797 -6.82894,8.98608 -0.64589,0.37999 -0.80681,0.59224 -0.56317,0.74282 0.19367,0.1197 0.44221,1.11033 0.57503,2.292 0.42615,3.79128 1.02761,10.23415 1.28107,13.72286 0.32217,4.43446 0.3422,22.271634 0.0273,24.341664 -0.13281,0.87313 -0.31526,2.59953 -0.40546,3.83646 -0.23583,3.23422 -0.39046,3.96794 -1.09656,5.20331 -0.8913,1.55937 -2.51409,2.85101 -4.75297,3.78305 -1.78714,0.74399 -2.15027,0.80084 -4.92437,0.77097 -1.647231,-0.0177 -3.947461,-0.18696 -5.111631,-0.37604 z m 9.026651,-2.08796 c 0.97607,-0.3543 2.07509,-0.94459 2.44226,-1.31176 l 0.66759,-0.6676 -1.24442,0.37452 c -4.09228,1.23159 -11.264841,1.07848 -13.612241,-0.2906 -1.21273,-0.70729 -3.22471,-2.30864 -4.9715,-3.95683 -1.27394,-1.20205 -1.40039,-2.81121 -0.55056,-7.00655 0.83925,-4.14312 1.59803,-6.54569 3.77737,-11.96058 2.06894,-5.140584 3.61975,-8.211434 5.39249,-10.677984 0.72186,-1.00439 1.90978,-3.05891 2.63982,-4.56561 1.096401,-2.26283 1.327341,-2.99057 1.327341,-4.1828 0,-1.70115 -0.26113,-1.6589 -1.200161,0.19419 -0.36351,0.71736 -1.44971,2.4651 -2.41376,3.88388 -3.07538,4.52594 -7.49733,13.355344 -9.57375,19.116064 -1.71611,4.7611 -2.4743,8.43413 -2.52812,12.24746 -0.0322,2.27787 0.59813,3.57237 2.69379,5.53261 1.71942,1.60831 3.47338,2.46941 6.03555,2.9631 6.106361,1.17661 8.540591,1.24415 11.118301,0.30849 z M 94.846559,118.602 c 0,-0.14552 -0.11906,-0.26458 -0.26458,-0.26458 -0.14553,0 -0.26459,0.11906 -0.26459,0.26458 0,0.14552 0.11906,0.26459 0.26459,0.26459 0.14552,0 0.26458,-0.11907 0.26458,-0.26459 z m 6.350001,-1.70417 c 0,-0.20969 -0.11906,-0.45485 -0.26458,-0.54478 -0.14553,-0.0899 -0.26459,0.0816 -0.26459,0.38125 0,0.29963 0.11906,0.54479 0.26459,0.54479 0.14552,0 0.26458,-0.17157 0.26458,-0.38126 z m 9.12505,-23.563534 c -0.55444,-7.3337 -0.8108,-10.12552 -1.17583,-12.80555 -0.16648,-1.22222 -0.2355,-2.39728 -0.15339,-2.61126 0.11833,-0.30836 -0.002,-0.35124 -0.58212,-0.20677 -0.40228,0.10026 -1.89228,0.24738 -3.31111,0.32693 -1.41883,0.0796 -2.57968,0.23473 -2.57968,0.34483 0,0.40179 1.15403,2.82457 2.14917,4.51197 1.68723,2.86094 2.60686,6.68185 3.43607,14.2763 0.16684,1.52797 0.51667,3.671104 0.77741,4.762504 0.26073,1.09141 0.54851,3.01574 0.6395,4.27629 0.23819,3.29977 0.39107,4.45079 0.74984,5.64559 0.5299,1.76469 0.56633,-11.69299 0.0501,-18.520834 z m -3.85198,4.96093 c -0.0102,-0.10914 -0.12092,-0.43656 -0.24599,-0.7276 -0.20149,-0.46891 -0.22951,-0.44631 -0.24598,0.19844 -0.0102,0.40018 0.10046,0.7276 0.24598,0.7276 0.14552,0 0.25622,-0.0893 0.24599,-0.19844 z m 8.84733,-29.07676 c 0.74966,-1.57205 1.00846,-3.48449 0.68343,-5.05016 -0.32477,-1.56441 -1.72797,-3.85544 -2.44495,-3.99191 -0.52361,-0.0997 -2.42306,1.47158 -3.18338,2.63333 l -0.48179,0.73616 1.00735,0.42089 c 1.90856,0.79745 2.0986,1.11616 3.43075,5.75345 0.20199,0.70315 0.48171,0.56117 0.98859,-0.50176 z m -8.16728,-4.59146 c -0.0899,-0.14553 -0.30532,-0.26277 -0.47863,-0.26054 -0.18934,0.002 -0.15671,0.10643 0.0818,0.26054 0.5083,0.32848 0.59989,0.32848 0.39687,0 z m 2.90229,-2.78327 c 0.51379,-0.80319 0.93417,-1.51756 0.93417,-1.5875 0,-0.0699 -0.3915,-0.12715 -0.87001,-0.12715 -0.70557,0 -1.05564,0.22207 -1.85208,1.17487 -0.54014,0.64618 -0.98207,1.24533 -0.98207,1.33144 0,0.18069 1.03626,0.62712 1.51322,0.65192 0.17743,0.009 0.74298,-0.64039 1.25677,-1.44358 z m -3.36056,0.13743 c 0.18176,-0.29104 0.23421,-0.52916 0.11656,-0.52916 -0.27564,0 -0.84891,0.57175 -0.84891,0.84666 0,0.38984 0.3985,0.21707 0.73235,-0.3175 z"
       id="path944" />
    <path
       style="fill:#cbc5ea;fill-opacity:1;stroke-width:1"
       d="m 142.85849,258.9033 c -0.52051,-0.21002 -0.56813,-2.23126 -0.0645,-2.73495 0.25599,-0.256 0.0748,-0.65397 -0.61501,-1.35052 -0.53788,-0.54315 -2.63386,-4.10315 -4.65773,-7.91107 -2.02388,-3.80792 -3.78572,-6.91842 -3.91519,-6.91222 -0.12948,0.006 -0.87849,1.36233 -1.66447,3.01362 -1.19955,2.52015 -1.39831,3.23165 -1.23756,4.43016 0.3129,2.33284 -1.26961,3.29148 -2.91028,1.76296 -0.99972,-0.93139 -0.94298,-1.58188 0.23392,-2.68125 0.5402,-0.50463 1.09808,-1.45103 1.23971,-2.10311 0.14164,-0.65209 0.61785,-2.2547 1.05825,-3.56139 0.44039,-1.30667 0.74357,-2.43293 0.67373,-2.50277 -0.0698,-0.0698 -2.54576,0.59555 -5.50204,1.47865 -2.95628,0.88311 -5.83093,1.64151 -6.38811,1.68535 -0.67691,0.0533 -1.14778,0.34992 -1.41908,0.89411 -0.84705,1.699 -2.36541,1.12255 -2.97145,-1.12812 -0.29738,-1.10438 -0.26465,-1.50945 0.17637,-2.18253 0.66357,-1.01272 1.11235,-1.037 2.0955,-0.11333 0.57679,0.54187 0.91049,0.63294 1.38965,0.37926 0.34682,-0.18363 3.24614,-1.13147 6.44291,-2.10633 3.19678,-0.97486 5.92615,-1.88246 6.06527,-2.01689 0.13912,-0.13443 -1.12479,-2.85385 -2.80869,-6.04314 -1.6839,-3.1893 -3.15399,-6.21178 -3.26687,-6.71665 -0.14895,-0.66635 -0.48343,-0.97907 -1.22022,-1.1409 -1.93206,-0.42436 -2.46455,-2.42108 -1.06937,-4.00991 0.58454,-0.66568 2.16306,-0.78709 3.17711,-0.2444 0.70495,0.37728 0.90998,2.14309 0.35129,3.02525 -0.2047,0.32321 0.0477,0.92804 0.79711,1.90975 0.60319,0.79022 2.23354,3.53909 3.623,6.1086 1.38946,2.56951 2.62408,4.67184 2.74358,4.67184 0.11953,0 1.02034,-2.03858 2.00187,-4.53019 0.98153,-2.49161 2.08812,-4.95394 2.45909,-5.47184 0.51923,-0.72487 0.59318,-1.09356 0.32127,-1.60163 -0.73096,-1.36581 0.93769,-3.55398 2.71018,-3.55398 1.43351,0 2.0652,0.66755 2.0652,2.18243 0,0.99819 -0.20963,1.46584 -0.90086,2.00954 -0.49546,0.38975 -1.18781,0.70862 -1.53855,0.70862 -0.4763,0 -0.6377,0.25194 -0.6377,0.99542 0,0.54748 -0.55146,2.27835 -1.22548,3.84639 -1.84787,4.29891 -2.49369,6.08661 -2.24619,6.2177 0.12302,0.0652 2.91609,-0.69576 6.20689,-1.69091 6.53797,-1.9771 7.23207,-2.09502 7.86232,-1.33562 0.34046,0.41024 0.32422,0.66336 -0.0823,1.28212 -0.39828,0.60632 -1.92231,1.19109 -7.1349,2.73771 -3.64563,1.08169 -6.82075,1.96636 -7.05581,1.96594 -0.23506,-3.5e-4 -0.42738,0.2179 -0.42738,0.48518 0,0.26729 1.89383,3.9983 4.20849,8.29112 2.31468,4.29284 4.30998,8.07439 4.43401,8.40347 0.12405,0.32907 0.51919,0.59833 0.87816,0.59833 1.71606,0 1.76268,1.93026 0.0898,3.72101 -0.96268,1.03056 -1.444,1.20279 -2.34512,0.83917 z m 8.73192,-26.3564 c -1.27204,-1.46387 -1.08989,-4.05526 0.30975,-4.40656 1.05942,-0.26589 1.63883,0.30455 2.1178,2.08507 0.29198,1.0853 0.26245,1.50928 -0.14876,2.13687 -0.61149,0.93326 -1.56137,1.01022 -2.27879,0.18462 z M 60.032847,172.18832 c -0.992482,-0.49959 -1.237114,-1.72507 -0.59361,-2.97378 0.384101,-0.74532 0.299163,-1.22893 -0.690566,-3.93187 -0.620682,-1.6951 -1.320319,-3.51669 -1.554741,-4.04794 l -0.426203,-0.96593 -1.749932,1.39331 c -0.96245,0.76631 -2.042261,1.39331 -2.399549,1.39331 -0.437741,0 -0.756326,0.36219 -0.976755,1.11046 -0.394219,1.33818 -1.231129,1.57551 -2.186576,0.62007 -1.299707,-1.29971 -0.666568,-3.65031 0.911227,-3.38301 0.592848,0.10044 4.196285,-2.59882 4.196285,-3.14334 0,-0.28292 -4.811488,-2.04221 -5.585285,-2.04221 -1.366673,0 -2.175269,-2.51153 -1.096778,-3.40659 0.514914,-0.42734 0.93331,-0.29534 2.014102,0.63545 0.644343,0.55493 4.711586,1.81577 4.982709,1.54465 0.08218,-0.0822 -0.108935,-0.96881 -0.424574,-1.9703 -0.315691,-1.00149 -0.573981,-2.21123 -0.573981,-2.68832 0,-0.68858 -0.209625,-0.90937 -1.016594,-1.07077 -1.802385,-0.36047 -1.822467,-2.97803 -0.02494,-3.24403 1.937474,-0.28668 3.216829,0.88373 2.45262,2.2438 -0.252888,0.45006 -0.182734,0.78055 0.273654,1.28902 0.337556,0.3761 1.049379,1.83773 1.581828,3.24808 0.532449,1.41033 1.002082,2.6151 1.043628,2.67726 0.0416,0.0622 1.252812,-0.82253 2.691667,-1.96595 1.438867,-1.1434 2.836824,-2.07893 3.106576,-2.07893 0.297561,0 0.490465,-0.3423 0.490465,-0.87029 0,-1.81148 2.400302,-3.11797 4.0784,-2.21988 0.958986,0.51322 1.488593,2.10784 1.067728,3.2148 -0.40585,1.06747 -2.253113,1.99344 -3.385858,1.69723 -0.544311,-0.14235 -1.125335,0.15965 -2.190749,1.13867 -0.797498,0.73281 -1.828358,1.5959 -2.290808,1.91797 -1.035848,0.7214 -0.767155,1.00552 1.695582,1.79288 1.034246,0.33065 2.296105,0.81124 2.804118,1.06794 0.719478,0.36357 1.114059,0.38001 1.784866,0.0743 1.103549,-0.50281 1.907146,0.0898 1.907146,1.40653 0,1.66591 -1.833657,2.63254 -3.050197,1.60792 -0.441843,-0.37212 -6.264769,-2.28059 -6.958332,-2.28059 -0.109452,0 0.339764,1.60872 0.99818,3.57494 0.834337,2.49158 1.387333,3.63531 1.82479,3.77416 1.750321,0.55553 1.555105,2.80253 -0.385341,4.43531 -1.183512,0.99586 -1.203993,0.99958 -2.344253,0.42561 z M 157.93433,74.759346 c -0.14555,-0.23505 -0.34694,-0.98193 -0.44757,-1.65973 -0.17168,-1.15659 -0.9713,-1.8456 -13.00212,-11.20363 -7.05055,-5.48421 -12.86945,-9.82048 -12.93088,-9.63617 -0.0615,0.1843 0.21597,1.95387 0.61647,3.93237 0.47221,2.33279 0.61902,3.79231 0.41767,4.1521 -0.22553,0.40302 -0.0907,0.77458 0.49259,1.35791 1.58131,1.58132 0.69383,3.91129 -1.48981,3.91129 -1.25741,0 -1.77726,-0.55958 -2.04341,-2.19959 -0.14258,-0.87869 -0.0406,-1.41143 0.35349,-1.84693 0.51273,-0.56656 0.46846,-1.01173 -0.59576,-5.99048 -0.63231,-2.95814 -1.215,-5.44378 -1.29487,-5.52365 -0.0799,-0.0798 -1.93677,1.97254 -4.12644,4.56094 -2.18967,2.58838 -4.29722,4.99213 -4.68346,5.34166 -0.42275,0.38259 -0.70222,1.06039 -0.70222,1.70309 0,1.21109 -0.8245,2.58735 -1.55006,2.58735 -0.97553,0 -1.63373,-1.61303 -1.41428,-3.46595 0.2443,-2.06263 0.73457,-2.75888 1.84489,-2.61993 0.68676,0.086 1.25622,-0.47938 3.50905,-3.4837 1.47908,-1.97249 2.63194,-3.64361 2.56192,-3.71365 -0.07,-0.07 -1.41599,0.0643 -2.99099,0.29869 -2.35811,0.35084 -2.91972,0.55375 -3.18136,1.1494 -0.46892,1.06755 -1.68946,1.0922 -2.72658,0.055 -1.59704,-1.59706 -0.42947,-3.6335 1.47157,-2.56666 0.85569,0.48019 1.04844,0.47228 2.21405,-0.0908 0.70222,-0.33926 2.54849,-0.94766 4.10282,-1.35199 1.55433,-0.40433 2.94816,-0.83944 3.09742,-0.96689 0.14926,-0.12742 -0.46617,-0.83044 -1.3676,-1.56218 -0.90144,-0.73176 -2.37242,-2.01014 -3.26884,-2.84088 -1.48478,-1.376 -1.70684,-1.47534 -2.49486,-1.11629 -0.47577,0.21677 -1.32721,0.39413 -1.89209,0.39413 -0.85109,0 -1.11294,-0.20554 -1.52826,-1.19955 -0.90549,-2.16714 0.20113,-3.92898 2.46781,-3.92898 1.14777,0 2.48508,1.23915 2.5404,2.35394 0.0234,0.47267 6.794,5.29849 7.0602,5.03229 0.21997,-0.21997 -1.57107,-8.16067 -1.91917,-8.50879 -0.48007,-0.48008 -0.49769,-2.8087 -0.0279,-3.68654 0.22679,-0.42375 0.71525,-0.66132 1.35973,-0.66132 1.46654,0 2.20127,1.26401 1.92144,3.30562 -0.11901,0.86793 -0.0742,2.13318 0.0996,2.81166 0.17373,0.67848 0.4924,2.11827 0.70815,3.19953 0.21575,1.08127 0.50914,1.96594 0.65198,1.96594 0.14283,0 1.60583,-1.69242 3.25109,-3.76092 1.64527,-2.06851 3.13298,-3.76092 3.30603,-3.76092 0.17304,0 0.31463,-0.59157 0.31463,-1.31461 0,-1.7388 0.92645,-2.62001 2.43692,-2.31791 1.56916,0.31383 2.0078,0.81245 2.0078,2.28236 0,1.56096 -0.71201,2.37586 -2.07583,2.37586 -0.57206,0 -1.00211,0.18321 -1.00322,0.42738 -0.001,0.23507 -1.53963,2.33048 -3.41901,4.6565 -1.87941,2.32601 -3.41709,4.30436 -3.41709,4.3963 0,0.19344 -0.46549,0.29301 8.3766,-1.79168 4.38278,-1.03331 6.96078,-1.80226 7.17993,-2.14155 1.26513,-1.95879 3.42179,-2.45889 4.42533,-1.02614 1.81354,2.58919 -0.93965,6.29316 -3.40903,4.58629 -0.58847,-0.40676 -1.60018,-0.2461 -7.93982,1.26095 -3.99596,0.94991 -7.2654,1.84544 -7.2654,1.99006 0,0.14462 5.50034,4.52198 12.22298,9.72746 6.72264,5.20548 12.68454,9.88877 13.24869,10.4073 0.56413,0.51852 1.56419,1.05338 2.22236,1.18855 2.36582,0.48594 2.68019,1.64152 1.00081,3.67891 -1.09422,1.32747 -2.719,1.74757 -3.27649,0.84717 z"
       id="path960" />
  </g>
</svg>
