<?xml version="1.0" encoding="UTF-8" standalone="no"?>
<svg
   viewBox="0 0 49.363445 50.893639"
   version="1.1"
   id="svg12"
   sodipodi:docname="meeple.svg"
   width="49.363445"
   height="50.893639"
   inkscape:version="1.2.2 (732a01da63, 2022-12-09)"
   xmlns:inkscape="http://www.inkscape.org/namespaces/inkscape"
   xmlns:sodipodi="http://sodipodi.sourceforge.net/DTD/sodipodi-0.dtd"
   xmlns="http://www.w3.org/2000/svg"
   xmlns:svg="http://www.w3.org/2000/svg">
  <defs
     id="defs16" />
  <sodipodi:namedview
     id="namedview14"
     pagecolor="#ffffff"
     bordercolor="#000000"
     borderopacity="0.25"
     inkscape:showpageshadow="2"
     inkscape:pageopacity="0.0"
     inkscape:pagecheckerboard="0"
     inkscape:deskcolor="#d1d1d1"
     showgrid="false"
     inkscape:zoom="3.4579125"
     inkscape:cx="-28.485394"
     inkscape:cy="34.703019"
     inkscape:window-width="3584"
     inkscape:window-height="1906"
     inkscape:window-x="8948"
     inkscape:window-y="983"
     inkscape:window-maximized="1"
     inkscape:current-layer="svg12" />
  <path
     d="m 39.905004,50.804829 c -1.345,0.294 -11.117,-0.205 -11.333,-0.579 -0.062,-0.107 -0.138,-0.691 -0.17,-1.3 -0.03,-0.607 -0.363,-2.056 -0.738,-3.219 -0.576,-1.785 -0.835,-2.28 -1.664001,-3.181 -1.546,-1.68 -2.019,-1.799 -3.582,-0.896 -1.702,0.983 -3.015,2.915 -3.949,5.812 l -0.676,2.1 -2.924,-0.245 C 7.875,48.709829 4.981,47.951829 4.606,46.609829 c -0.087,-0.31 0.122,-1.098 0.464,-1.752 0.342,-0.654 0.764,-1.67 0.938,-2.26 0.174,-0.588 0.51,-1.281 0.746,-1.54 0.236,-0.259 0.653,-0.933 0.927,-1.497 0.274,-0.565 1.196,-2.277 2.05,-3.804 0.854,-1.526 1.495,-2.875 1.424,-2.997 -0.177,-0.308 -2.38,1.325 -3.58,2.653 -1.14,1.262 -1.601,1.3 -2.535,0.213 -0.33,-0.385 -1.047,-1.031 -1.594,-1.437 -0.547,-0.405 -1.546,-1.41 -2.22,-2.233 l -1.226,-1.496 0.314,-1.22 c 0.237,-0.918 0.794,-1.762 2.253,-3.419 2.526,-2.868 5.462,-5.037 10.523,-7.775 l 3.872003,-2.096 -1.038,-2.018 c -0.786,-1.53 -1.075003,-2.418 -1.192003,-3.67 -0.492,-5.2789995 3.417003,-9.79399953 8.848003,-10.22099953 1.954,-0.154 5.532001,0.144 7.430001,0.619 3.472,0.86800003 6.5,4.13000003 7.083,7.63100003 0.43,2.5789995 -0.72,6.1319995 -2.608,8.0629995 -0.49,0.5 -0.847,0.988 -0.792,1.081 0.054,0.094 0.61,0.477 1.237,0.85 2.003,1.195 6.274,4.803 8.357,7.058 2.178,2.358 4.822,6.465 5.033,7.816 0.133,0.856 0.095,0.91 -2.138,3.019 -2.246,2.12 -4.34,3.343 -5.234,3.055 -0.362,-0.116 -0.653,-0.351 -0.648,-0.522 0.005,-0.17 -0.764,-1.11 -1.71,-2.086 -1.672,-1.729 -2.393,-2.152 -1.74,-1.022 0.499,0.865 3.274,9.303 3.425,10.415 0.074,0.546 0.296,1.586 0.492,2.313 0.338,1.248 0.315,1.35 -0.413,1.824 -0.424,0.276 -1.076,0.569 -1.45,0.65 z m 0.394,-2.72 c -0.18,-0.75 -0.483,-1.777 -0.674,-2.284 -0.192,-0.506 -0.992,-3.12 -1.779,-5.808 -1.404,-4.795 -1.46,-4.932 -3.03,-7.263 l -1.598,-2.377 0.16,1.489 c 0.228,2.131 1.417,7.4 2.042,9.047 0.792,2.09 1.159,3.605 1.132,4.671 -0.02,0.796 0.564,3.253 0.945,3.969 0.103,0.194 2.63,0.207 2.962,0.016 0.092,-0.053 0.02,-0.71 -0.16,-1.46 z m 7.27,-14.367 c 0.389,-0.375 -2.737,-5.025 -5.04,-7.5 -4.54,-4.877 -8.53,-8.383 -9.14,-8.03 -0.187,0.107 -0.214,0.294 -0.06,0.416 0.152,0.121 1.232,1.251 2.398,2.51 a 1895.22,1895.22 0 0 0 3.353,3.613 c 1.203,1.29 2.744,3.294 4.971,6.463 1.222,1.74 1.417,2.937 0.558,3.433 -0.285,0.164 -0.364,0.416 -0.213,0.677 0.211,0.366 0.403,0.307 1.62,-0.5 0.76,-0.503 1.459,-0.99 1.554,-1.082 z m -7.451,0.69 c -0.179,-0.14 -0.202,-0.054 -0.059,0.219 0.13,0.247 0.262,0.351 0.294,0.231 0.033,-0.12 -0.073,-0.322 -0.235,-0.45 z m -22.555001,12.616 c 0.074,-0.432 0.04,-0.457 -0.205,-0.155 -0.16,0.199 -0.24,0.454 -0.174,0.566 0.17,0.295 0.279,0.177 0.379,-0.411 z m -3.418003,-4.588 c 0.005,-0.171 -0.1,-0.248 -0.234,-0.171 -0.133,0.077 -0.183,0.243 -0.11,0.37 0.073,0.125 0.178,0.202 0.233,0.17 0.056,-0.032 0.105,-0.198 0.11,-0.37 z m 19.791004,-17.843 c -0.073,-0.126 -0.241,-0.166 -0.375,-0.089 -0.133,0.077 -0.12,0.207 0.032,0.288 0.15,0.08 0.319,0.12 0.374,0.089 0.056,-0.032 0.042,-0.162 -0.03,-0.288 z m -0.91,-16.1769995 c -0.43,-1.75 -1.643,-3.628 -3.241,-5.016 -0.755,-0.656 -1.367,-0.903 -2.524,-1.018 -1.475001,-0.147 -3.272001,0.241 -3.556001,0.769 -0.169,0.313 1.632,1.213 2.977001,1.488 1.821,0.372 4.746,3.646 5.766,6.4539995 l 0.413,1.136 0.27,-1.141 c 0.156,-0.66 0.112,-1.7899995 -0.105,-2.6719995 z M 7.43,25.512829 c 1.18,-0.865 2.914,-2.268 3.852,-3.117 0.938,-0.849 2.434,-2.068 3.325,-2.709 0.890003,-0.64 1.763003,-1.271 1.940003,-1.4 0.178,-0.13 0.654,-0.45 1.059,-0.712 0.49,-0.317 0.63,-0.534 0.422,-0.646 -0.46,-0.248 -6.690003,3.74 -10.018003,6.414 -2.784,2.237 -4.55,4.025 -4.338,4.392 0.159,0.275 1.16,-0.317 3.758,-2.222 z m 9.727003,-15.241 c -0.146,-1.3569995 -0.522,-1.9399995 -0.484,-0.7489995 0.027,0.8249995 0.363,2.2189995 0.514,2.1309995 0.061,-0.035 0.048,-0.657 -0.03,-1.382 z m 2.951,-6.7199995 c 0.005,-0.171 -0.197,-0.192 -0.449,-0.046 -0.252,0.145 -0.462,0.404 -0.467,0.575 -0.005,0.171 0.197,0.192 0.449,0.046 0.252,-0.145 0.462,-0.404 0.467,-0.575 z"
     style="fill:#ffd42a;fill-opacity:1;stroke-width:1"
     id="path10" />
</svg>
