<?xml version="1.0" standalone="no"?>
<!DOCTYPE svg PUBLIC "-//W3C//DTD SVG 20010904//EN"
 "http://www.w3.org/TR/2001/REC-SVG-20010904/DTD/svg10.dtd">
<svg version="1.0" xmlns="http://www.w3.org/2000/svg"
 width="400.000000pt" height="400.000000pt" viewBox="0 0 400.000000 400.000000"
 preserveAspectRatio="xMidYMid meet">
<metadata>
Created by potrace 1.14, written by Peter Selinger 2001-2017
</metadata>
<g transform="translate(0.000000,400.000000) scale(0.100000,-0.100000)"
fill="#000000" stroke="none">
<path d="M1489 3996 c-2 -2 -26 -7 -54 -10 -27 -4 -70 -10 -95 -13 -25 -4 -55
-7 -67 -7 -13 -1 -23 -5 -23 -10 0 -6 -5 -5 -11 1 -19 19 -199 -33 -199 -57 0
-6 -8 -10 -17 -10 -22 0 -141 -78 -211 -138 -28 -24 -82 -85 -120 -135 -158
-209 -197 -339 -196 -647 1 -163 4 -198 28 -300 43 -189 75 -278 140 -405 76
-147 131 -226 219 -316 81 -84 123 -112 148 -99 12 7 19 5 23 -5 3 -8 14 -15
24 -15 21 0 40 -51 66 -180 9 -41 25 -113 36 -160 33 -136 36 -161 16 -172 -9
-5 -16 -14 -16 -21 0 -7 -14 -27 -30 -46 -17 -18 -30 -37 -30 -40 0 -3 -10
-11 -22 -16 -32 -15 -76 -110 -83 -180 -5 -47 -1 -76 17 -135 22 -70 26 -76
68 -96 95 -47 113 -52 163 -45 26 4 47 6 47 4 0 -2 14 4 31 12 17 9 37 14 44
11 7 -2 36 -51 64 -107 29 -56 76 -134 106 -173 86 -115 224 -257 295 -306 37
-25 86 -58 109 -74 41 -29 85 -44 206 -72 116 -28 271 -38 330 -23 22 6 57 12
78 14 83 7 214 40 287 73 31 14 177 115 190 132 3 3 14 13 26 21 18 13 108
109 144 155 26 32 87 156 108 220 55 160 71 340 67 744 l-3 305 37 40 c25 26
47 66 65 118 25 69 27 86 22 162 -8 129 -19 159 -73 200 -25 19 -49 35 -54 35
-4 0 -20 5 -36 12 -33 14 -39 15 -57 17 -9 1 -19 21 -25 54 -7 28 -22 81 -35
117 -14 36 -36 102 -50 148 -41 129 -87 208 -163 280 -37 34 -73 62 -80 62 -7
0 -13 6 -13 13 0 18 -100 74 -177 98 -70 23 -150 21 -200 -4 -15 -8 -55 -18
-88 -22 -130 -15 -544 -155 -575 -195 -3 -3 -21 -13 -41 -23 -19 -9 -48 -28
-65 -44 -16 -15 -47 -37 -69 -48 -22 -12 -76 -49 -120 -83 -44 -33 -81 -59
-83 -57 -2 1 15 45 38 96 22 52 40 97 40 101 0 4 10 24 23 45 21 36 66 136 70
158 2 6 6 15 10 21 4 7 22 53 41 103 19 49 41 101 49 113 8 13 27 59 42 103
15 44 31 85 35 90 4 6 17 42 29 80 11 39 39 124 62 190 22 66 45 146 50 179 6
33 15 66 21 74 12 14 8 19 -42 46 -45 25 -141 37 -316 41 -94 3 -173 3 -175 1z"/>
</g>
</svg>
